# xmcd CD database file
#
# Track frame offsets:
#	150
#	14443
#	37426
#	58278
#	75854
#	98779
#	116887
#	140293
#	169758
#	188766
#	210532
#	232891
#
# Disc length: 3460 seconds
#
# Revision: 0
# Processed by: cddbd v1.4PL0 Copyright (c) Steve Scherf et al.
# Submitted via: CDex 1.50beta9
#
DISCID=a00d820c
DTITLE=Swinger Club - Monsters Of Jazz
DYEAR=2003
DGENRE=Jazz
TTITLE0=YMCA
TTITLE1=We Will Rock You
TTITLE2=Techno
TTITLE3=Pornø
TTITLE4=Walking On The Moon
TTITLE5=So Lonely
TTITLE6=Firestarter
TTITLE7=Goldfinger
TTITLE8=Sexy City
TTITLE9=Highway To Hell
TTITLE10=Girls, Girls, Girls
TTITLE11=Our House
EXTD=YEAR: 2003
EXTT0=
EXTT1=
EXTT2=
EXTT3=
EXTT4=
EXTT5=
EXTT6=
EXTT7=
EXTT8=
EXTT9=
EXTT10=
EXTT11=
PLAYORDER=
